<svg id="svg" version="1.1" xmlns="http://www.w3.org/2000/svg" xmlns:xlink="http://www.w3.org/1999/xlink" width="400" height="400" viewBox="0, 0, 400,400"><g id="svgg"><path id="path0" d="M0.000 200.000 L 0.000 400.000 200.000 400.000 L 400.000 400.000 400.000 200.000 L 400.000 0.000 200.000 0.000 L 0.000 0.000 0.000 200.000 M88.516 149.044 C 96.360 153.675,103.016 157.555,103.307 157.666 C 103.597 157.777,110.361 153.989,118.339 149.247 C 134.754 139.489,135.464 139.244,136.960 142.823 C 138.118 145.595,138.678 145.141,121.614 155.241 L 110.221 161.984 124.739 170.543 C 132.724 175.250,139.741 179.571,140.332 180.146 L 141.406 181.190 141.406 202.031 C 141.406 226.378,142.095 223.447,135.453 227.345 L 130.664 230.155 117.816 245.906 C 104.932 261.700,104.082 262.570,102.522 261.548 C 101.931 261.161,78.491 232.688,76.953 230.489 C 76.846 230.336,74.587 228.917,71.933 227.336 C 65.402 223.445,66.077 226.313,65.978 202.023 L 65.894 181.194 66.834 180.265 C 67.351 179.755,73.926 175.708,81.445 171.273 C 88.965 166.838,95.531 162.945,96.038 162.623 L 96.958 162.037 94.670 160.655 C 93.412 159.895,87.637 156.473,81.836 153.051 C 69.024 145.493,68.091 144.516,70.952 141.655 C 72.777 139.829,73.225 140.018,88.516 149.044 M252.567 164.467 C 256.036 166.146,257.553 170.525,255.870 174.002 C 252.380 181.212,241.797 178.876,241.797 170.895 C 241.797 165.413,247.496 162.012,252.567 164.467 M187.891 179.492 L 187.891 191.797 201.953 191.797 L 216.016 191.797 216.016 179.492 L 216.016 167.188 222.461 167.188 L 228.906 167.188 228.906 198.242 L 228.906 229.297 222.461 229.297 L 216.016 229.297 216.016 216.602 L 216.016 203.906 201.953 203.906 L 187.891 203.906 187.891 216.611 L 187.891 229.316 181.543 229.209 L 175.195 229.102 175.095 198.145 L 174.995 167.188 181.443 167.188 L 187.891 167.188 187.891 179.492 M341.141 183.787 C 350.167 186.138,354.886 193.168,355.368 204.980 L 355.580 210.156 340.435 210.156 L 325.291 210.156 325.546 211.751 C 326.133 215.421,328.473 218.427,332.031 220.081 C 335.999 221.926,346.941 220.809,351.060 218.139 C 351.536 217.830,352.020 217.578,352.135 217.578 C 352.250 217.578,352.344 219.666,352.344 222.218 L 352.344 226.857 350.453 227.670 C 341.012 231.732,328.166 231.305,321.229 226.701 C 308.176 218.037,310.110 192.087,324.307 185.413 C 328.903 183.252,336.332 182.535,341.141 183.787 M255.469 206.641 L 255.469 229.297 249.023 229.297 L 242.578 229.297 242.578 206.901 C 242.578 194.583,242.695 184.388,242.839 184.245 C 242.982 184.102,245.882 183.984,249.284 183.984 L 255.469 183.984 255.469 206.641 M280.720 200.729 C 285.225 214.059,286.377 217.098,286.643 216.354 C 286.825 215.845,289.333 208.355,292.217 199.709 L 297.461 183.988 303.851 183.986 L 310.241 183.984 310.005 184.863 C 309.876 185.347,305.945 195.498,301.269 207.422 L 292.768 229.102 285.702 229.208 L 278.636 229.314 270.597 207.333 C 266.175 195.243,262.436 185.040,262.288 184.658 C 262.035 184.009,262.431 183.972,268.573 184.072 L 275.127 184.180 280.720 200.729 M330.590 193.177 C 328.332 194.302,326.791 196.251,325.950 199.048 C 324.878 202.608,324.204 202.344,334.375 202.344 L 343.359 202.344 343.350 201.270 C 343.285 193.980,336.990 189.988,330.590 193.177 " stroke="none" fill="#ffffff" fill-rule="evenodd"></path><path id="path1" d="M72.057 140.997 C 70.153 141.768,69.426 144.186,70.636 145.724 C 71.062 146.266,77.211 150.131,84.299 154.312 C 91.387 158.493,97.073 162.028,96.933 162.167 C 96.794 162.305,90.088 166.308,82.031 171.062 C 73.975 175.815,67.075 180.071,66.699 180.520 C 65.848 181.536,65.630 221.382,66.465 223.215 C 66.758 223.859,68.590 225.187,71.742 227.042 L 76.570 229.883 89.499 245.801 C 101.108 260.093,102.543 261.719,103.554 261.719 C 104.808 261.719,104.434 262.146,121.484 241.260 L 130.664 230.015 135.583 227.115 C 138.819 225.207,140.656 223.876,140.954 223.222 C 141.610 221.782,141.559 182.667,140.899 181.122 C 140.523 180.241,137.421 178.238,125.585 171.233 C 117.421 166.402,110.610 162.320,110.449 162.162 C 110.288 162.004,116.058 158.375,123.271 154.099 C 130.485 149.822,136.549 146.020,136.748 145.648 C 137.744 143.787,135.998 140.625,133.973 140.625 C 133.340 140.625,112.402 152.688,104.460 157.629 C 103.722 158.088,102.282 157.328,88.835 149.383 C 80.689 144.570,73.760 140.641,73.438 140.653 C 73.115 140.665,72.494 140.819,72.057 140.997 M246.286 164.400 C 240.709 166.934,240.354 174.615,245.688 177.336 C 250.624 179.854,256.362 176.393,256.362 170.898 C 256.362 165.628,251.081 162.222,246.286 164.400 M119.492 175.195 L 134.754 184.180 134.760 201.984 L 134.766 219.789 119.118 228.861 L 103.471 237.933 101.052 236.560 C 99.721 235.805,92.832 231.796,85.742 227.651 L 72.852 220.115 72.750 202.133 L 72.649 184.150 83.272 177.915 C 89.114 174.486,96.016 170.410,98.608 168.859 C 101.200 167.308,103.525 166.078,103.775 166.125 C 104.025 166.172,111.097 170.254,119.492 175.195 M175.391 198.047 L 175.391 228.906 181.641 228.906 L 187.891 228.906 187.891 216.406 L 187.891 203.906 201.953 203.906 L 216.016 203.906 216.016 216.406 L 216.016 228.906 222.461 228.906 L 228.906 228.906 228.906 198.047 L 228.906 167.188 222.461 167.188 L 216.016 167.188 216.016 179.688 L 216.016 192.188 201.953 192.188 L 187.891 192.188 187.891 179.688 L 187.891 167.188 181.641 167.188 L 175.391 167.188 175.391 198.047 M329.496 183.819 C 310.461 187.596,305.936 219.036,323.181 227.689 C 330.218 231.220,341.789 231.229,349.971 227.710 L 351.953 226.857 351.953 222.413 C 351.953 219.969,351.858 217.969,351.742 217.969 C 351.626 217.969,350.821 218.331,349.953 218.774 C 339.503 224.105,327.601 220.904,325.554 212.212 L 325.073 210.165 340.173 210.063 L 355.273 209.961 355.225 205.469 C 355.053 189.313,344.892 180.763,329.496 183.819 M242.969 206.641 L 242.969 228.906 249.219 228.906 L 255.469 228.906 255.469 206.641 L 255.469 184.375 249.219 184.375 L 242.969 184.375 242.969 206.641 M262.500 184.577 C 262.500 184.699,266.133 194.723,270.574 206.852 L 278.648 228.906 285.418 228.906 C 289.141 228.906,292.287 228.950,292.408 229.004 C 292.530 229.058,296.308 219.697,300.805 208.203 C 305.302 196.709,309.244 186.646,309.566 185.840 L 310.150 184.375 303.802 184.375 L 297.454 184.375 292.226 200.098 C 289.351 208.745,286.844 216.238,286.655 216.748 C 286.373 217.507,285.290 214.662,280.708 201.123 L 275.105 184.570 268.802 184.463 C 265.336 184.404,262.500 184.455,262.500 184.577 M337.691 192.362 C 341.187 193.414,343.359 196.705,343.360 200.950 L 343.360 202.539 334.176 202.428 L 324.992 202.316 325.226 201.256 C 326.838 193.951,331.624 190.536,337.691 192.362 " stroke="none" fill="#1f2937" fill-rule="evenodd"></path><path id="path2" d="M96.875 169.963 C 93.330 172.093,86.431 176.163,81.544 179.008 L 72.659 184.180 72.755 202.092 L 72.852 220.005 88.148 228.937 L 103.444 237.870 119.099 228.798 L 134.753 219.727 134.662 201.960 L 134.570 184.193 119.141 175.105 C 110.654 170.107,103.623 166.034,103.516 166.055 C 103.408 166.075,100.420 167.834,96.875 169.963 " stroke="none" fill="#fbbf24" fill-rule="evenodd"></path><path id="path3" d="M175.192 198.145 L 175.195 229.102 181.543 229.117 L 187.891 229.132 181.643 229.009 L 175.395 228.887 175.292 198.037 L 175.188 167.187 175.192 198.145 M248.535 178.394 C 248.911 178.493,249.526 178.493,249.902 178.394 C 250.278 178.296,249.971 178.216,249.219 178.216 C 248.467 178.216,248.159 178.296,248.535 178.394 M65.737 184.180 C 65.740 185.254,65.816 185.647,65.905 185.053 C 65.995 184.459,65.993 183.581,65.900 183.100 C 65.807 182.620,65.734 183.105,65.737 184.180 M265.351 184.276 C 267.242 184.347,270.230 184.347,271.992 184.275 C 273.754 184.202,272.207 184.144,268.555 184.144 C 264.902 184.145,263.461 184.204,265.351 184.276 M300.507 184.276 C 302.398 184.347,305.386 184.347,307.148 184.275 C 308.910 184.202,307.363 184.144,303.711 184.144 C 300.059 184.145,298.617 184.204,300.507 184.276 M242.761 206.641 C 242.761 218.779,242.810 223.745,242.871 217.676 C 242.931 211.606,242.931 201.675,242.871 195.605 C 242.810 189.536,242.761 194.502,242.761 206.641 M352.101 222.656 C 352.101 225.127,352.164 226.138,352.242 224.902 C 352.319 223.667,352.319 221.646,352.242 220.410 C 352.164 219.175,352.101 220.186,352.101 222.656 M219.257 229.197 C 221.148 229.269,224.136 229.269,225.898 229.197 C 227.660 229.124,226.113 229.066,222.461 229.066 C 218.809 229.067,217.367 229.126,219.257 229.197 M245.410 229.191 C 246.216 229.275,247.534 229.275,248.340 229.191 C 249.146 229.107,248.486 229.038,246.875 229.038 C 245.264 229.038,244.604 229.107,245.410 229.191 M250.879 229.186 C 251.470 229.276,252.437 229.276,253.027 229.186 C 253.618 229.097,253.135 229.023,251.953 229.023 C 250.771 229.023,250.288 229.097,250.879 229.186 " stroke="none" fill="#d97706" fill-rule="evenodd"></path><path id="path4" d="M245.996 184.274 C 247.339 184.350,249.536 184.350,250.879 184.274 C 252.222 184.197,251.123 184.135,248.438 184.135 C 245.752 184.135,244.653 184.197,245.996 184.274 M348.047 187.232 C 348.047 187.299,348.618 187.870,349.316 188.501 L 350.586 189.648 349.439 188.379 C 348.369 187.196,348.047 186.930,348.047 187.232 M193.457 192.087 C 195.122 192.160,197.847 192.160,199.512 192.087 C 201.177 192.014,199.814 191.954,196.484 191.954 C 193.154 191.954,191.792 192.014,193.457 192.087 M203.613 192.066 C 203.989 192.164,204.604 192.164,204.980 192.066 C 205.356 191.968,205.049 191.888,204.297 191.888 C 203.545 191.888,203.237 191.968,203.613 192.066 M207.910 192.084 C 208.931 192.164,210.601 192.164,211.621 192.084 C 212.642 192.004,211.807 191.938,209.766 191.938 C 207.725 191.938,206.890 192.004,207.910 192.084 M282.129 229.197 C 284.009 229.269,287.085 229.269,288.965 229.197 C 290.845 229.125,289.307 229.067,285.547 229.067 C 281.787 229.067,280.249 229.125,282.129 229.197 " stroke="none" fill="#f59e0b" fill-rule="evenodd"></path></g></svg>